<svg xmlns="http://www.w3.org/2000/svg" viewBox="-8 -8 272 272" width="600" height="600"><style>
path, g, line, circle, rect { transform-box: fill-box; transform-origin: center; }

.cspin { animation: cSpin 1.8s linear infinite; transform-box: view-box; transform-origin: 128px 127px; }
@keyframes cSpin { to { transform: rotate(360deg); } }
.carc { animation: cArc 1.8s ease-in-out infinite; }
@keyframes cArc { 0%,100% {stroke-dasharray: 8 92} 50% {stroke-dasharray: 34 66} }
.cbolt { animation: cBolt 1.8s infinite; }
@keyframes cBolt { 0%,40% {opacity:1; transform:scale(1)} 46% {opacity:.25; transform:scale(1.15)} 50% {opacity:1; transform:scale(1.2)}
  54% {opacity:.4} 58% {opacity:1; transform:scale(1)} 100% {opacity:1; transform:scale(1)} }
.csparks { animation: cSparks 1.8s infinite; }
@keyframes cSparks { 0%,44% {opacity:0; transform:scale(.6)} 50% {opacity:1; transform:scale(1)} 64%,100% {opacity:0; transform:scale(1.5)} }
.cleafL { animation: cLeafL 1.8s ease-in-out infinite; transform-origin: 100% 100%; }
.cleafR { animation: cLeafR 1.8s ease-in-out infinite; transform-origin: 0% 100%; }
@keyframes cLeafL { 0%,100% {transform:none} 50% {transform:rotate(-3deg)} }
@keyframes cLeafR { 0%,100% {transform:none} 50% {transform:rotate(3deg)} }
.ctrap { animation: cTrap 1.8s ease-in-out infinite; }
@keyframes cTrap { 0%,100% {transform:none} 50% {transform:translateY(-4px)} }
</style><path class="" d="M 123.81 249.04 C 119.78 248.95 116.05 248.73 114.84 248.50 C 114.14 248.37 112.55 248.17 111.31 248.06 C 108.66 247.83 108.46 247.80 107.31 247.49 C 106.83 247.37 105.58 247.14 104.53 247.00 C 103.48 246.86 102.27 246.63 101.84 246.50 C 101.41 246.37 100.35 246.15 99.48 246.01 C 98.60 245.87 97.60 245.64 97.25 245.50 C 96.90 245.36 96.08 245.13 95.43 244.99 C 94.78 244.85 94.01 244.63 93.72 244.50 C 93.43 244.37 92.67 244.15 92.04 244.02 C 91.41 243.88 90.68 243.65 90.41 243.52 C 90.14 243.38 89.45 243.15 88.87 243.00 C 88.30 242.85 87.63 242.63 87.39 242.51 C 87.14 242.38 86.49 242.16 85.94 242.01 C 85.39 241.86 84.76 241.62 84.54 241.49 C 84.32 241.35 83.73 241.13 83.24 240.99 C 82.74 240.85 82.19 240.63 82.01 240.51 C 81.83 240.38 81.32 240.16 80.88 240.03 C 80.43 239.89 79.73 239.60 79.33 239.39 C 78.93 239.17 78.51 239.00 78.41 239.00 C 78.30 239.00 77.87 238.81 77.45 238.58 C 77.03 238.35 76.40 238.06 76.04 237.95 C 75.69 237.83 75.33 237.66 75.25 237.56 C 75.17 237.47 74.72 237.24 74.25 237.06 C 73.77 236.88 73.25 236.63 73.09 236.50 C 72.92 236.37 72.48 236.14 72.11 236.00 C 71.74 235.85 71.33 235.63 71.19 235.50 C 71.05 235.37 70.62 235.15 70.23 235.00 C 69.84 234.86 69.45 234.65 69.36 234.54 C 69.26 234.43 68.89 234.20 68.52 234.04 C 68.15 233.87 67.67 233.61 67.45 233.44 C 67.24 233.28 66.84 233.06 66.56 232.94 C 66.29 232.83 65.95 232.63 65.81 232.50 C 65.67 232.37 65.28 232.14 64.94 231.99 C 64.59 231.84 64.13 231.55 63.90 231.36 C 63.68 231.16 63.41 231.00 63.32 231.00 C 63.23 231.00 62.91 230.80 62.63 230.56 C 62.34 230.32 61.87 230.02 61.58 229.90 C 61.30 229.77 60.98 229.57 60.88 229.45 C 60.79 229.33 60.53 229.16 60.32 229.07 C 60.11 228.98 59.70 228.71 59.40 228.46 C 59.11 228.22 58.74 227.98 58.59 227.93 C 58.44 227.88 58.11 227.67 57.86 227.45 C 57.62 227.24 57.25 226.96 57.05 226.84 C 56.31 226.39 55.43 225.76 55.12 225.46 C 54.95 225.29 54.63 225.06 54.41 224.95 C 54.18 224.84 54.00 224.69 54.00 224.62 C 54.00 224.55 53.70 224.30 53.34 224.06 C 52.98 223.82 52.35 223.34 51.94 223.00 C 51.52 222.66 50.97 222.22 50.71 222.04 C 50.44 221.85 50.04 221.53 49.82 221.32 C 49.30 220.83 48.41 220.05 47.79 219.54 C 47.53 219.32 46.69 218.58 45.94 217.90 C 45.18 217.21 44.35 216.47 44.09 216.23 C 43.29 215.52 39.25 211.46 37.99 210.10 C 37.33 209.39 36.13 208.05 35.33 207.12 C 34.53 206.20 33.70 205.24 33.49 205.00 C 33.28 204.76 32.87 204.27 32.59 203.92 C 32.30 203.56 31.86 203.02 31.62 202.73 C 31.37 202.43 31.04 201.99 30.88 201.75 C 30.71 201.51 30.50 201.27 30.41 201.21 C 30.32 201.16 30.16 200.93 30.05 200.71 C 29.94 200.49 29.71 200.17 29.55 200.00 C 29.23 199.67 28.98 199.34 28.08 198.00 C 27.78 197.55 27.41 197.08 27.26 196.95 C 27.12 196.82 27.00 196.64 27.00 196.54 C 27.00 196.45 26.81 196.16 26.58 195.91 C 26.35 195.65 26.06 195.24 25.94 195.00 C 25.82 194.76 25.55 194.38 25.36 194.15 C 25.16 193.93 25.00 193.66 25.00 193.56 C 25.00 193.46 24.84 193.20 24.64 192.97 C 24.44 192.75 24.14 192.28 23.96 191.93 C 23.79 191.58 23.56 191.22 23.45 191.13 C 23.34 191.04 23.13 190.71 22.99 190.39 C 22.85 190.07 22.63 189.70 22.51 189.56 C 22.38 189.43 22.13 189.02 21.95 188.67 C 21.78 188.31 21.57 187.98 21.49 187.93 C 21.41 187.88 21.22 187.55 21.06 187.20 C 20.90 186.84 20.64 186.38 20.47 186.18 C 20.30 185.98 20.12 185.67 20.07 185.50 C 20.02 185.33 19.76 184.82 19.49 184.37 C 19.22 183.92 19.00 183.49 19.00 183.41 C 19.00 183.34 18.81 183.00 18.58 182.67 C 18.35 182.34 18.10 181.86 18.02 181.61 C 17.94 181.37 17.73 180.98 17.56 180.75 C 17.39 180.51 17.13 180.01 16.99 179.63 C 16.85 179.25 16.62 178.76 16.49 178.54 C 16.35 178.33 16.13 177.81 15.99 177.39 C 15.86 176.97 15.61 176.43 15.44 176.18 C 15.27 175.94 15.05 175.44 14.95 175.07 C 14.84 174.71 14.65 174.28 14.51 174.11 C 14.38 173.94 14.18 173.47 14.06 173.06 C 13.94 172.65 13.71 172.07 13.54 171.77 C 13.37 171.48 13.12 170.83 12.98 170.34 C 12.84 169.84 12.63 169.27 12.50 169.06 C 12.37 168.86 12.15 168.24 12.00 167.69 C 11.85 167.14 11.62 166.51 11.49 166.30 C 11.36 166.09 11.14 165.41 10.99 164.80 C 10.85 164.19 10.62 163.51 10.49 163.29 C 10.35 163.08 10.13 162.37 9.99 161.73 C 9.86 161.09 9.64 160.31 9.51 160.00 C 9.38 159.69 9.15 158.83 9.00 158.09 C 8.85 157.35 8.63 156.50 8.49 156.20 C 8.36 155.91 8.14 154.96 8.00 154.09 C 7.86 153.23 7.63 152.20 7.50 151.81 C 7.36 151.42 7.14 150.25 6.99 149.20 C 6.85 148.16 6.63 146.89 6.50 146.37 C 6.37 145.85 6.14 144.25 6.00 142.81 C 5.86 141.37 5.64 139.37 5.50 138.38 C 4.89 133.95 4.85 120.78 5.44 117.33 C 5.54 116.72 5.77 114.76 5.94 112.96 C 6.11 111.11 6.35 109.28 6.49 108.75 C 6.62 108.23 6.85 106.96 7.00 105.92 C 7.14 104.87 7.37 103.70 7.50 103.31 C 7.64 102.92 7.86 101.89 8.00 101.03 C 8.14 100.17 8.36 99.22 8.49 98.92 C 8.63 98.62 8.85 97.79 9.00 97.06 C 9.15 96.34 9.38 95.50 9.51 95.20 C 9.64 94.90 9.86 94.13 9.99 93.48 C 10.12 92.84 10.36 92.03 10.53 91.69 C 10.70 91.34 10.94 90.65 11.05 90.14 C 11.16 89.63 11.36 89.03 11.50 88.81 C 11.64 88.59 11.87 87.94 12.01 87.37 C 12.15 86.79 12.37 86.18 12.50 86.00 C 12.63 85.81 12.86 85.22 13.00 84.68 C 13.15 84.13 13.38 83.51 13.51 83.30 C 13.64 83.09 13.87 82.53 14.01 82.05 C 14.16 81.58 14.39 81.03 14.53 80.84 C 14.67 80.64 14.87 80.17 14.99 79.77 C 15.11 79.38 15.36 78.85 15.54 78.59 C 15.72 78.32 15.95 77.80 16.06 77.42 C 16.17 77.03 16.40 76.52 16.56 76.27 C 16.72 76.02 16.92 75.59 17.00 75.31 C 17.09 75.04 17.29 74.64 17.45 74.42 C 17.61 74.21 17.84 73.76 17.97 73.42 C 18.10 73.09 18.38 72.56 18.60 72.26 C 18.82 71.96 19.00 71.62 19.00 71.51 C 19.00 71.39 19.18 71.02 19.39 70.68 C 19.61 70.34 19.89 69.82 20.02 69.52 C 20.15 69.21 20.39 68.81 20.55 68.61 C 20.72 68.42 20.92 68.04 21.00 67.78 C 21.09 67.52 21.29 67.17 21.44 67.00 C 21.60 66.83 21.84 66.43 21.97 66.12 C 22.11 65.81 22.36 65.39 22.53 65.19 C 22.70 64.98 22.96 64.56 23.11 64.25 C 23.48 63.48 24.17 62.36 24.47 62.06 C 24.61 61.92 24.83 61.58 24.98 61.30 C 25.12 61.01 25.37 60.62 25.54 60.42 C 25.71 60.22 25.96 59.82 26.11 59.53 C 26.26 59.24 26.43 59.00 26.50 59.00 C 26.57 59.00 26.76 58.73 26.94 58.41 C 27.25 57.82 27.76 57.11 28.48 56.25 C 28.68 56.01 28.94 55.63 29.05 55.40 C 29.17 55.17 29.34 54.96 29.44 54.92 C 29.54 54.88 29.76 54.60 29.93 54.28 C 30.11 53.97 30.42 53.51 30.63 53.26 C 31.19 52.59 32.00 51.58 32.50 50.94 C 32.74 50.62 33.42 49.81 34.00 49.14 C 34.58 48.47 35.29 47.65 35.56 47.32 C 35.84 46.99 36.29 46.48 36.56 46.18 C 36.84 45.89 37.51 45.16 38.06 44.56 C 38.86 43.70 42.21 40.33 44.94 37.65 C 45.31 37.29 46.57 36.18 48.89 34.18 C 49.54 33.63 50.27 33.05 50.53 32.89 C 50.79 32.73 51.00 32.55 51.00 32.49 C 51.00 32.43 51.22 32.24 51.49 32.07 C 51.76 31.90 52.12 31.63 52.28 31.47 C 52.79 31.00 53.64 30.33 54.06 30.06 C 54.47 29.81 54.88 29.48 56.01 28.53 C 56.35 28.24 56.68 28.00 56.73 28.00 C 56.79 28.00 57.16 27.75 57.56 27.44 C 57.95 27.13 58.35 26.88 58.43 26.88 C 58.51 26.87 58.72 26.73 58.88 26.55 C 59.05 26.37 59.44 26.09 59.76 25.93 C 60.07 25.78 60.41 25.55 60.50 25.44 C 60.59 25.32 60.93 25.10 61.25 24.94 C 61.57 24.78 61.90 24.55 62.00 24.44 C 62.09 24.33 62.36 24.16 62.59 24.06 C 62.83 23.96 63.23 23.72 63.48 23.52 C 63.73 23.32 64.16 23.06 64.44 22.95 C 64.71 22.83 65.05 22.63 65.19 22.51 C 65.32 22.38 65.73 22.13 66.08 21.95 C 66.44 21.78 66.77 21.57 66.82 21.49 C 66.87 21.41 67.22 21.21 67.61 21.04 C 68.00 20.87 68.42 20.63 68.54 20.52 C 68.77 20.32 69.48 19.93 71.12 19.12 C 71.56 18.90 72.10 18.60 72.31 18.44 C 72.52 18.28 72.91 18.09 73.19 18.00 C 73.46 17.92 73.89 17.71 74.14 17.54 C 74.39 17.38 74.89 17.12 75.26 16.99 C 75.62 16.85 76.06 16.63 76.22 16.49 C 76.39 16.36 76.90 16.14 77.36 16.00 C 77.82 15.86 78.32 15.64 78.47 15.51 C 78.63 15.38 79.13 15.14 79.60 14.99 C 80.06 14.84 80.59 14.61 80.77 14.48 C 80.95 14.35 81.46 14.14 81.90 14.00 C 82.33 13.87 82.87 13.64 83.10 13.50 C 83.33 13.36 83.89 13.16 84.35 13.05 C 84.81 12.94 85.47 12.70 85.81 12.51 C 86.16 12.32 86.83 12.06 87.31 11.95 C 87.79 11.83 88.37 11.63 88.60 11.49 C 88.82 11.36 89.47 11.14 90.03 10.99 C 90.58 10.85 91.26 10.62 91.52 10.49 C 91.79 10.35 92.58 10.12 93.28 9.98 C 93.99 9.84 94.76 9.62 95.00 9.50 C 95.24 9.38 96.06 9.15 96.81 9.00 C 97.57 8.85 98.46 8.62 98.79 8.49 C 99.12 8.36 100.07 8.14 100.91 8.00 C 101.75 7.87 102.78 7.64 103.19 7.50 C 103.60 7.35 104.75 7.13 105.75 6.99 C 106.75 6.86 108.01 6.64 108.56 6.51 C 109.55 6.26 112.01 5.96 114.19 5.81 C 114.81 5.76 116.02 5.62 116.88 5.49 C 121.13 4.85 135.52 4.82 139.25 5.44 C 140.62 5.66 141.96 5.82 144.47 6.06 C 145.59 6.16 146.94 6.36 147.47 6.50 C 148.00 6.63 149.28 6.85 150.31 6.98 C 151.34 7.12 152.53 7.34 152.94 7.48 C 153.35 7.63 154.38 7.86 155.22 8.00 C 156.07 8.14 157.03 8.36 157.35 8.49 C 157.67 8.61 158.52 8.84 159.22 8.99 C 159.93 9.14 160.78 9.38 161.10 9.52 C 161.42 9.65 162.24 9.88 162.92 10.02 C 163.60 10.15 164.42 10.39 164.74 10.55 C 165.05 10.71 165.70 10.93 166.17 11.05 C 166.64 11.17 167.24 11.37 167.50 11.50 C 167.76 11.63 168.38 11.85 168.87 11.99 C 169.36 12.13 169.94 12.35 170.16 12.48 C 170.38 12.62 171.01 12.85 171.55 13.00 C 172.09 13.14 172.77 13.39 173.05 13.55 C 173.33 13.72 173.87 13.95 174.25 14.07 C 174.63 14.19 175.07 14.39 175.24 14.52 C 175.40 14.65 175.85 14.84 176.24 14.95 C 176.62 15.06 177.18 15.31 177.48 15.51 C 177.78 15.71 178.32 15.95 178.68 16.06 C 179.04 16.16 179.48 16.36 179.66 16.50 C 179.84 16.64 180.29 16.86 180.65 16.99 C 181.01 17.11 181.53 17.36 181.79 17.54 C 182.05 17.71 182.47 17.93 182.72 18.01 C 182.98 18.09 183.38 18.31 183.62 18.49 C 183.87 18.68 184.26 18.90 184.50 18.98 C 184.74 19.07 185.15 19.27 185.41 19.44 C 185.66 19.61 186.18 19.89 186.55 20.05 C 186.92 20.21 187.26 20.41 187.31 20.50 C 187.36 20.58 187.76 20.81 188.19 21.00 C 188.62 21.19 189.01 21.41 189.06 21.49 C 189.10 21.57 189.47 21.79 189.86 21.99 C 190.25 22.19 190.66 22.45 190.75 22.57 C 190.85 22.68 191.22 22.90 191.57 23.06 C 191.93 23.22 192.26 23.41 192.31 23.49 C 192.35 23.57 192.68 23.78 193.04 23.96 C 193.40 24.14 193.86 24.42 194.06 24.59 C 194.59 25.02 195.21 25.44 195.92 25.84 C 196.25 26.03 196.72 26.37 196.97 26.59 C 197.21 26.82 197.48 27.00 197.56 27.00 C 197.64 27.00 197.84 27.15 198.01 27.32 C 198.18 27.50 198.53 27.76 198.79 27.89 C 199.05 28.03 199.47 28.32 199.72 28.55 C 199.98 28.78 200.33 29.04 200.50 29.13 C 200.67 29.22 200.89 29.39 200.98 29.52 C 201.07 29.65 201.32 29.84 201.54 29.95 C 201.76 30.07 202.08 30.29 202.25 30.45 C 202.57 30.75 203.25 31.29 204.28 32.07 C 204.61 32.32 204.87 32.57 204.88 32.63 C 204.88 32.69 205.05 32.83 205.27 32.95 C 205.48 33.06 205.89 33.37 206.17 33.65 C 206.93 34.37 207.67 35.04 209.49 36.60 C 210.68 37.63 212.39 39.25 214.00 40.89 C 216.70 43.63 219.88 47.04 220.07 47.39 C 220.14 47.52 220.35 47.79 220.53 47.97 C 221.50 48.97 222.34 49.96 223.49 51.50 C 224.42 52.73 225.01 53.46 225.53 54.00 C 225.79 54.27 226.00 54.57 226.00 54.66 C 226.00 54.76 226.12 54.94 226.26 55.07 C 226.41 55.21 226.67 55.57 226.85 55.87 C 227.03 56.18 227.36 56.65 227.59 56.91 C 227.81 57.16 228.00 57.43 228.00 57.50 C 228.00 57.57 228.19 57.84 228.42 58.09 C 228.65 58.35 228.96 58.79 229.10 59.07 C 229.24 59.35 229.45 59.66 229.56 59.75 C 229.68 59.84 229.90 60.18 230.06 60.50 C 230.22 60.82 230.45 61.15 230.56 61.25 C 230.67 61.34 230.85 61.62 230.95 61.87 C 231.05 62.11 231.29 62.51 231.49 62.75 C 231.68 62.99 231.96 63.43 232.11 63.71 C 232.25 64.00 232.43 64.27 232.51 64.32 C 232.59 64.37 232.79 64.72 232.96 65.11 C 233.13 65.50 233.40 65.95 233.55 66.12 C 233.71 66.30 233.91 66.63 234.00 66.88 C 234.09 67.12 234.31 67.51 234.49 67.75 C 234.67 67.99 234.93 68.44 235.07 68.75 C 235.22 69.06 235.43 69.39 235.54 69.48 C 235.65 69.57 235.83 69.91 235.93 70.24 C 236.04 70.57 236.27 71.02 236.44 71.25 C 236.61 71.48 236.84 71.93 236.96 72.24 C 237.07 72.55 237.30 73.00 237.47 73.22 C 237.63 73.45 237.86 73.90 237.96 74.22 C 238.07 74.55 238.32 75.04 238.52 75.31 C 238.72 75.58 238.94 76.03 239.01 76.31 C 239.09 76.59 239.31 77.07 239.50 77.38 C 239.69 77.68 239.92 78.19 240.00 78.49 C 240.08 78.80 240.28 79.25 240.45 79.49 C 240.62 79.74 240.87 80.32 241.01 80.79 C 241.15 81.25 241.39 81.83 241.56 82.07 C 241.72 82.30 241.92 82.79 242.00 83.15 C 242.09 83.52 242.31 84.09 242.50 84.44 C 242.69 84.78 242.92 85.37 243.00 85.75 C 243.09 86.13 243.31 86.75 243.50 87.12 C 243.68 87.50 243.93 88.20 244.05 88.67 C 244.17 89.14 244.37 89.75 244.51 90.01 C 244.64 90.27 244.86 90.97 245.00 91.56 C 245.14 92.15 245.36 92.86 245.50 93.13 C 245.64 93.40 245.87 94.17 246.00 94.84 C 246.14 95.51 246.37 96.33 246.51 96.66 C 246.64 96.99 246.87 97.86 247.00 98.60 C 247.13 99.33 247.36 100.28 247.50 100.69 C 247.64 101.10 247.87 102.14 248.01 103.00 C 248.15 103.86 248.37 104.90 248.51 105.31 C 248.64 105.72 248.89 107.17 249.06 108.53 C 249.23 109.89 249.45 111.32 249.55 111.72 C 249.77 112.59 249.96 114.62 250.12 117.81 C 250.19 119.12 250.32 120.97 250.40 121.94 C 250.63 124.40 250.59 131.26 250.33 133.88 C 250.23 135.01 250.10 136.61 250.06 137.44 C 249.94 139.77 249.75 141.59 249.50 142.75 C 249.37 143.33 249.21 144.46 249.13 145.25 C 248.93 147.26 248.77 148.19 248.50 149.08 C 248.37 149.50 248.15 150.61 248.01 151.55 C 247.86 152.48 247.64 153.52 247.51 153.86 C 247.37 154.20 247.14 155.11 247.00 155.89 C 246.85 156.67 246.62 157.57 246.49 157.88 C 246.36 158.18 246.14 158.99 246.00 159.66 C 245.87 160.33 245.65 161.09 245.51 161.35 C 245.38 161.61 245.16 162.31 245.01 162.91 C 244.87 163.51 244.64 164.22 244.51 164.48 C 244.38 164.74 244.15 165.42 244.01 165.97 C 243.86 166.53 243.64 167.18 243.51 167.40 C 243.37 167.63 243.15 168.22 243.01 168.73 C 242.88 169.23 242.65 169.82 242.52 170.04 C 242.38 170.26 242.16 170.84 242.01 171.33 C 241.87 171.82 241.65 172.35 241.52 172.51 C 241.39 172.68 241.16 173.21 241.00 173.69 C 240.84 174.17 240.61 174.70 240.48 174.86 C 240.35 175.02 240.14 175.53 240.00 175.99 C 239.86 176.44 239.64 176.94 239.51 177.10 C 239.38 177.25 239.15 177.74 239.00 178.18 C 238.86 178.61 238.63 179.07 238.50 179.19 C 238.37 179.31 238.17 179.69 238.05 180.05 C 237.94 180.40 237.71 180.86 237.55 181.08 C 237.39 181.30 237.14 181.78 237.00 182.16 C 236.86 182.53 236.64 182.94 236.50 183.06 C 236.37 183.18 236.17 183.56 236.06 183.89 C 235.94 184.23 235.72 184.67 235.55 184.86 C 235.39 185.06 235.14 185.48 235.00 185.81 C 234.86 186.13 234.58 186.60 234.37 186.85 C 234.17 187.10 234.00 187.37 234.00 187.45 C 234.00 187.53 233.81 187.87 233.59 188.20 C 233.36 188.54 233.10 189.01 233.00 189.25 C 232.91 189.49 232.68 189.86 232.50 190.06 C 232.32 190.27 232.09 190.63 232.00 190.86 C 231.91 191.09 231.65 191.50 231.42 191.77 C 231.19 192.05 231.00 192.35 231.00 192.45 C 231.00 192.55 230.81 192.84 230.58 193.09 C 230.35 193.35 230.04 193.83 229.89 194.16 C 229.73 194.48 229.55 194.75 229.49 194.75 C 229.43 194.75 229.26 194.99 229.11 195.28 C 228.97 195.57 228.71 195.95 228.54 196.12 C 228.37 196.30 228.06 196.69 227.86 197.00 C 227.14 198.11 226.51 198.97 225.68 199.97 C 225.47 200.23 225.11 200.69 224.89 201.00 C 224.17 202.02 223.77 202.56 223.44 202.94 C 223.26 203.14 222.86 203.62 222.55 204.00 C 221.11 205.75 219.05 208.11 217.84 209.41 C 216.86 210.46 211.72 215.63 210.94 216.36 C 210.03 217.20 206.84 219.99 206.19 220.50 C 205.79 220.81 205.30 221.24 205.08 221.45 C 204.86 221.67 204.50 221.94 204.28 222.05 C 204.06 222.16 203.88 222.31 203.88 222.37 C 203.88 222.47 203.18 223.03 202.02 223.85 C 201.70 224.08 201.30 224.39 201.12 224.55 C 200.95 224.70 200.66 224.92 200.47 225.04 C 200.29 225.16 200.01 225.37 199.85 225.51 C 199.56 225.77 198.63 226.43 197.95 226.84 C 197.75 226.96 197.34 227.27 197.04 227.53 C 196.73 227.79 196.42 228.00 196.33 228.00 C 196.25 228.00 195.96 228.18 195.69 228.41 C 195.43 228.63 194.97 228.95 194.68 229.12 C 193.60 229.78 193.33 229.95 192.76 230.34 C 192.45 230.56 191.96 230.85 191.69 230.98 C 191.41 231.11 191.10 231.31 191.01 231.43 C 190.91 231.55 190.46 231.81 190.01 232.01 C 189.56 232.22 189.08 232.49 188.94 232.62 C 188.80 232.75 188.53 232.90 188.33 232.94 C 188.14 232.99 187.72 233.23 187.41 233.47 C 187.10 233.71 186.66 233.96 186.45 234.04 C 186.24 234.11 185.85 234.33 185.58 234.52 C 185.32 234.71 184.90 234.93 184.65 235.01 C 184.39 235.09 184.00 235.30 183.77 235.47 C 183.53 235.64 183.07 235.89 182.73 236.02 C 182.39 236.15 181.91 236.39 181.65 236.56 C 181.40 236.72 180.87 236.98 180.48 237.12 C 180.09 237.27 179.70 237.47 179.62 237.57 C 179.54 237.67 179.15 237.84 178.76 237.95 C 178.38 238.06 177.81 238.31 177.50 238.50 C 177.19 238.70 176.68 238.92 176.38 239.00 C 176.07 239.08 175.57 239.29 175.28 239.46 C 174.98 239.63 174.45 239.85 174.09 239.96 C 173.73 240.06 173.21 240.28 172.94 240.43 C 172.66 240.59 172.04 240.84 171.54 240.99 C 171.05 241.13 170.41 241.39 170.11 241.55 C 169.81 241.71 169.18 241.94 168.70 242.05 C 168.23 242.17 167.64 242.37 167.38 242.50 C 167.12 242.63 166.45 242.85 165.88 243.00 C 165.30 243.15 164.62 243.37 164.37 243.50 C 164.11 243.64 163.39 243.85 162.77 243.99 C 162.15 244.12 161.38 244.35 161.06 244.50 C 160.74 244.65 159.94 244.87 159.27 245.00 C 158.61 245.12 157.76 245.35 157.40 245.49 C 157.04 245.63 155.97 245.89 155.03 246.06 C 154.08 246.23 152.91 246.48 152.43 246.61 C 151.94 246.74 150.81 246.95 149.93 247.06 C 149.04 247.17 147.96 247.37 147.54 247.50 C 147.08 247.64 145.62 247.85 144.04 248.00 C 142.54 248.14 141.09 248.31 140.81 248.38 C 139.29 248.75 130.83 249.18 126.62 249.10 C 125.90 249.08 124.64 249.06 123.81 249.04 Z M 133.76 243.87 C 135.37 243.80 137.36 243.63 138.19 243.50 C 139.01 243.37 140.98 243.14 142.56 243.00 C 144.28 242.85 145.78 242.65 146.28 242.51 C 146.73 242.38 147.86 242.18 148.77 242.07 C 149.69 241.96 150.89 241.73 151.44 241.56 C 151.99 241.40 153.11 241.15 153.94 241.01 C 154.76 240.88 155.71 240.64 156.04 240.50 C 156.36 240.35 157.21 240.12 157.91 239.99 C 158.61 239.85 159.53 239.61 159.94 239.45 C 160.35 239.28 161.03 239.08 161.44 239.00 C 161.85 238.92 162.55 238.69 163.00 238.50 C 163.45 238.31 164.15 238.08 164.56 238.00 C 164.97 237.91 165.57 237.72 165.88 237.56 C 166.18 237.41 166.86 237.15 167.38 237.00 C 167.89 236.85 168.48 236.62 168.69 236.50 C 168.89 236.38 169.43 236.18 169.88 236.06 C 170.32 235.94 170.97 235.68 171.31 235.49 C 171.66 235.30 172.26 235.06 172.65 234.96 C 173.04 234.86 173.53 234.66 173.74 234.51 C 173.95 234.36 174.39 234.16 174.73 234.06 C 175.06 233.96 175.54 233.74 175.78 233.58 C 176.02 233.41 176.55 233.16 176.95 233.01 C 177.36 232.86 177.83 232.64 178.00 232.51 C 178.17 232.39 178.63 232.17 179.01 232.03 C 179.40 231.88 179.92 231.63 180.18 231.45 C 180.43 231.28 180.85 231.07 181.10 230.99 C 181.35 230.91 181.74 230.71 181.95 230.55 C 182.17 230.39 182.66 230.12 183.04 229.95 C 183.43 229.78 183.86 229.53 184.00 229.40 C 184.14 229.27 184.48 229.10 184.75 229.02 C 185.02 228.93 185.40 228.74 185.59 228.58 C 185.78 228.42 186.19 228.16 186.50 228.00 C 186.81 227.85 187.18 227.62 187.31 227.49 C 187.45 227.37 187.82 227.15 188.14 227.01 C 188.46 226.87 188.79 226.66 188.88 226.55 C 188.98 226.44 189.34 226.22 189.68 226.07 C 190.03 225.92 190.39 225.69 190.49 225.57 C 190.59 225.45 190.93 225.22 191.25 225.06 C 191.57 224.90 191.91 224.68 192.00 224.56 C 192.09 224.45 192.40 224.24 192.68 224.10 C 192.96 223.96 193.41 223.65 193.68 223.42 C 193.95 223.19 194.24 223.00 194.33 223.00 C 194.41 223.00 194.73 222.79 195.04 222.53 C 195.34 222.27 195.75 221.96 195.95 221.85 C 196.35 221.60 197.20 220.96 197.89 220.38 C 198.14 220.17 198.40 220.00 198.47 220.00 C 198.55 220.00 198.76 219.84 198.96 219.65 C 199.15 219.46 199.52 219.17 199.78 219.02 C 200.04 218.86 200.29 218.66 200.34 218.58 C 200.39 218.49 200.66 218.26 200.94 218.06 C 201.44 217.69 203.14 216.26 204.06 215.43 C 205.22 214.40 205.64 214.02 206.64 213.13 C 207.95 211.96 212.86 207.06 214.19 205.59 C 214.74 204.98 215.40 204.25 215.66 203.96 C 215.93 203.67 216.35 203.20 216.60 202.91 C 216.86 202.62 217.21 202.22 217.38 202.03 C 217.55 201.84 217.83 201.50 217.99 201.27 C 218.15 201.04 218.40 200.73 218.55 200.57 C 219.11 199.98 219.88 199.00 220.13 198.58 C 220.27 198.34 220.47 198.12 220.56 198.08 C 220.66 198.04 220.83 197.83 220.95 197.60 C 221.06 197.37 221.29 197.05 221.46 196.88 C 221.84 196.49 223.00 194.88 223.00 194.74 C 223.00 194.69 223.22 194.38 223.50 194.06 C 223.78 193.74 224.00 193.43 224.00 193.37 C 224.00 193.30 224.19 193.04 224.42 192.78 C 224.65 192.52 224.96 192.08 225.10 191.80 C 225.24 191.52 225.45 191.22 225.56 191.12 C 225.68 191.03 225.90 190.69 226.07 190.36 C 226.24 190.03 226.43 189.73 226.50 189.69 C 226.57 189.64 226.78 189.32 226.96 188.96 C 227.14 188.60 227.44 188.13 227.64 187.90 C 227.84 187.68 228.00 187.42 228.00 187.33 C 228.00 187.23 228.18 186.94 228.39 186.67 C 228.61 186.41 228.87 185.99 228.99 185.75 C 229.10 185.51 229.33 185.11 229.51 184.87 C 229.69 184.63 229.93 184.17 230.05 183.85 C 230.17 183.53 230.35 183.20 230.46 183.11 C 230.57 183.02 230.85 182.55 231.09 182.06 C 231.87 180.47 232.44 179.40 232.58 179.23 C 232.67 179.14 232.85 178.74 233.00 178.35 C 233.14 177.96 233.37 177.50 233.51 177.33 C 233.65 177.15 233.87 176.70 234.00 176.33 C 234.13 175.95 234.35 175.48 234.49 175.29 C 234.63 175.10 234.86 174.61 234.99 174.22 C 235.13 173.82 235.37 173.32 235.54 173.09 C 235.71 172.87 235.94 172.36 236.06 171.95 C 236.17 171.55 236.40 171.02 236.56 170.77 C 236.73 170.52 236.93 170.03 237.01 169.69 C 237.09 169.34 237.29 168.82 237.46 168.52 C 237.63 168.23 237.88 167.59 238.01 167.11 C 238.15 166.62 238.39 165.97 238.55 165.65 C 238.71 165.32 238.93 164.68 239.05 164.20 C 239.17 163.73 239.37 163.13 239.51 162.86 C 239.64 162.60 239.86 161.90 240.00 161.31 C 240.14 160.72 240.36 160.02 240.50 159.76 C 240.63 159.49 240.86 158.73 241.01 158.06 C 241.15 157.40 241.37 156.61 241.50 156.32 C 241.62 156.02 241.85 155.17 242.00 154.42 C 242.15 153.67 242.38 152.75 242.51 152.38 C 242.64 152.00 242.86 150.93 242.99 150.00 C 243.13 149.07 243.36 147.94 243.50 147.50 C 243.64 147.05 243.87 145.70 244.01 144.50 C 244.15 143.30 244.37 141.89 244.50 141.38 C 244.92 139.70 245.37 132.26 245.37 127.12 C 245.38 122.69 244.88 114.66 244.50 112.78 C 244.37 112.15 244.14 110.68 244.00 109.53 C 243.86 108.38 243.64 107.10 243.50 106.69 C 243.37 106.28 243.14 105.21 243.00 104.31 C 242.86 103.42 242.63 102.35 242.50 101.94 C 242.36 101.53 242.14 100.60 242.01 99.88 C 241.88 99.15 241.65 98.30 241.51 97.98 C 241.37 97.66 241.14 96.86 241.00 96.20 C 240.87 95.54 240.65 94.79 240.52 94.53 C 240.39 94.27 240.18 93.61 240.06 93.06 C 239.94 92.51 239.72 91.81 239.56 91.50 C 239.41 91.19 239.16 90.47 239.02 89.89 C 238.87 89.32 238.61 88.61 238.45 88.33 C 238.28 88.05 238.06 87.48 237.94 87.06 C 237.82 86.65 237.60 86.09 237.44 85.81 C 237.28 85.54 237.08 85.02 237.00 84.65 C 236.92 84.29 236.72 83.80 236.55 83.56 C 236.39 83.32 236.16 82.80 236.05 82.41 C 235.94 82.01 235.69 81.41 235.50 81.06 C 235.31 80.72 235.06 80.15 234.95 79.80 C 234.83 79.44 234.63 79.05 234.49 78.93 C 234.36 78.81 234.16 78.41 234.05 78.05 C 233.95 77.69 233.72 77.18 233.55 76.93 C 233.38 76.68 233.14 76.20 233.01 75.88 C 232.89 75.55 232.64 75.09 232.47 74.86 C 232.30 74.63 232.06 74.15 231.95 73.79 C 231.83 73.44 231.65 73.07 231.54 72.98 C 231.43 72.89 231.18 72.47 230.99 72.05 C 230.80 71.62 230.58 71.24 230.50 71.19 C 230.41 71.13 230.21 70.78 230.04 70.41 C 229.88 70.03 229.61 69.54 229.45 69.33 C 229.29 69.11 229.11 68.80 229.06 68.62 C 229.02 68.45 228.81 68.11 228.62 67.86 C 228.42 67.60 228.16 67.18 228.04 66.92 C 227.92 66.65 227.63 66.23 227.41 65.97 C 227.18 65.71 227.00 65.43 227.00 65.33 C 227.00 65.24 226.78 64.87 226.50 64.50 C 226.23 64.13 226.00 63.76 226.00 63.67 C 226.00 63.59 225.79 63.27 225.53 62.96 C 225.27 62.66 224.96 62.25 224.84 62.05 C 224.49 61.48 223.79 60.47 223.46 60.06 C 223.30 59.86 223.07 59.51 222.96 59.30 C 222.86 59.09 222.67 58.84 222.56 58.75 C 222.44 58.65 222.16 58.29 221.92 57.94 C 221.26 56.96 220.90 56.47 220.49 56.00 C 220.28 55.76 219.90 55.30 219.65 54.98 C 218.20 53.17 217.89 52.78 217.41 52.20 C 216.37 50.95 215.27 49.69 214.67 49.08 C 214.46 48.87 213.78 48.12 213.17 47.44 C 211.98 46.10 209.50 43.62 207.63 41.88 C 207.00 41.29 206.30 40.64 206.09 40.42 C 205.55 39.90 202.44 37.20 201.56 36.50 C 201.17 36.19 200.58 35.71 200.24 35.44 C 199.90 35.16 199.36 34.72 199.03 34.46 C 198.71 34.20 198.18 33.78 197.86 33.53 C 197.54 33.27 197.12 32.96 196.92 32.84 C 196.26 32.43 195.32 31.77 195.06 31.53 C 194.93 31.40 194.55 31.15 194.24 30.97 C 193.93 30.79 193.59 30.55 193.51 30.44 C 193.42 30.34 193.07 30.10 192.73 29.92 C 192.40 29.73 192.12 29.54 192.12 29.48 C 192.12 29.43 191.89 29.26 191.59 29.11 C 191.30 28.96 190.90 28.70 190.70 28.54 C 190.50 28.37 190.08 28.10 189.76 27.94 C 189.43 27.78 189.10 27.56 189.01 27.45 C 188.92 27.34 188.58 27.13 188.27 26.99 C 187.95 26.85 187.58 26.63 187.44 26.51 C 187.30 26.38 186.93 26.15 186.62 26.00 C 186.32 25.84 185.91 25.59 185.72 25.43 C 185.53 25.27 185.17 25.08 184.91 25.00 C 184.65 24.91 184.26 24.71 184.04 24.55 C 183.82 24.38 183.37 24.13 183.04 23.99 C 182.71 23.85 182.32 23.63 182.19 23.50 C 182.05 23.37 181.62 23.15 181.23 23.00 C 180.84 22.86 180.38 22.63 180.22 22.50 C 180.05 22.37 179.60 22.14 179.22 22.00 C 178.83 21.86 178.38 21.63 178.22 21.50 C 178.05 21.37 177.60 21.14 177.22 21.00 C 176.83 20.86 176.38 20.63 176.21 20.49 C 176.04 20.36 175.53 20.14 175.09 20.00 C 174.65 19.86 174.15 19.64 173.98 19.51 C 173.82 19.38 173.26 19.15 172.75 19.00 C 172.23 18.85 171.59 18.59 171.31 18.43 C 171.04 18.28 170.51 18.06 170.15 17.95 C 169.78 17.84 169.30 17.65 169.08 17.51 C 168.87 17.38 168.29 17.16 167.80 17.02 C 167.32 16.89 166.70 16.66 166.42 16.52 C 166.14 16.38 165.45 16.15 164.88 16.00 C 164.30 15.85 163.62 15.63 163.37 15.50 C 163.11 15.36 162.39 15.15 161.76 15.01 C 161.13 14.87 160.36 14.64 160.03 14.50 C 159.70 14.35 158.88 14.12 158.19 13.98 C 157.50 13.84 156.66 13.61 156.33 13.48 C 155.99 13.35 155.04 13.13 154.20 12.99 C 153.37 12.85 152.27 12.61 151.75 12.45 C 151.23 12.29 150.22 12.09 149.50 12.00 C 148.78 11.92 147.65 11.72 147.00 11.55 C 146.30 11.38 144.70 11.15 143.09 11.00 C 141.59 10.86 139.57 10.64 138.59 10.50 C 133.76 9.85 121.84 9.85 117.81 10.50 C 116.99 10.63 115.27 10.83 114.00 10.94 C 111.40 11.16 110.35 11.31 109.44 11.57 C 109.09 11.67 108.03 11.86 107.06 12.00 C 106.10 12.14 105.00 12.36 104.62 12.49 C 104.25 12.62 103.22 12.85 102.34 12.99 C 101.46 13.14 100.45 13.37 100.09 13.50 C 99.73 13.63 98.88 13.86 98.19 14.00 C 97.50 14.14 96.67 14.37 96.34 14.51 C 96.01 14.65 95.24 14.87 94.63 15.00 C 94.02 15.13 93.29 15.35 93.01 15.49 C 92.74 15.63 92.04 15.86 91.47 15.99 C 90.89 16.13 90.14 16.37 89.80 16.54 C 89.47 16.71 88.88 16.91 88.50 17.00 C 88.12 17.08 87.59 17.28 87.31 17.44 C 87.04 17.60 86.47 17.82 86.06 17.94 C 85.65 18.06 84.95 18.35 84.51 18.58 C 84.07 18.81 83.61 19.00 83.49 19.00 C 83.37 19.00 82.91 19.19 82.46 19.43 C 82.02 19.66 81.41 19.92 81.11 20.00 C 80.81 20.08 80.36 20.28 80.12 20.44 C 79.88 20.61 79.36 20.86 78.96 20.99 C 78.56 21.13 78.10 21.35 77.92 21.49 C 77.75 21.63 77.29 21.86 76.91 22.00 C 76.53 22.14 76.08 22.37 75.91 22.50 C 75.74 22.63 75.29 22.86 74.90 23.00 C 74.51 23.15 74.08 23.37 73.94 23.50 C 73.80 23.63 73.38 23.85 73.00 24.00 C 72.62 24.15 72.20 24.37 72.06 24.49 C 71.92 24.62 71.55 24.84 71.22 24.98 C 70.90 25.12 70.45 25.37 70.22 25.54 C 70.00 25.71 69.59 25.94 69.31 26.06 C 69.04 26.17 68.70 26.37 68.56 26.50 C 68.42 26.63 68.05 26.85 67.74 26.99 C 67.43 27.13 67.07 27.36 66.94 27.50 C 66.81 27.64 66.47 27.87 66.20 28.01 C 65.92 28.14 65.43 28.44 65.11 28.66 C 64.79 28.88 64.37 29.16 64.17 29.28 C 63.97 29.40 63.64 29.63 63.42 29.78 C 63.20 29.94 62.87 30.16 62.67 30.28 C 62.12 30.62 61.48 31.07 61.01 31.46 C 60.78 31.65 60.43 31.88 60.24 31.96 C 60.05 32.04 59.68 32.30 59.42 32.53 C 59.15 32.77 58.75 33.06 58.52 33.18 C 58.30 33.29 58.08 33.47 58.04 33.57 C 58.00 33.68 57.75 33.87 57.49 34.00 C 57.23 34.14 56.97 34.33 56.91 34.43 C 56.85 34.54 56.55 34.79 56.25 35.00 C 55.94 35.20 55.38 35.63 55.00 35.94 C 54.62 36.25 54.09 36.68 53.81 36.89 C 53.54 37.09 52.92 37.62 52.44 38.06 C 51.96 38.50 50.79 39.54 49.85 40.37 C 47.38 42.54 42.19 47.73 40.39 49.81 C 39.07 51.34 38.22 52.31 37.69 52.88 C 37.41 53.18 36.95 53.75 36.13 54.83 C 35.83 55.23 35.51 55.61 35.42 55.66 C 35.33 55.72 35.11 56.01 34.93 56.31 C 34.76 56.61 34.54 56.88 34.44 56.92 C 34.34 56.96 34.15 57.20 34.02 57.46 C 33.89 57.72 33.65 58.05 33.50 58.19 C 33.35 58.33 33.12 58.63 33.00 58.88 C 32.88 59.12 32.65 59.42 32.50 59.56 C 32.35 59.70 32.11 60.04 31.97 60.31 C 31.83 60.59 31.64 60.86 31.55 60.91 C 31.45 60.97 31.25 61.25 31.11 61.54 C 30.96 61.83 30.65 62.28 30.42 62.55 C 30.19 62.82 30.00 63.12 30.00 63.21 C 30.00 63.29 29.84 63.55 29.64 63.78 C 29.44 64.00 29.17 64.42 29.02 64.70 C 28.88 64.99 28.62 65.39 28.44 65.60 C 28.27 65.81 28.04 66.17 27.94 66.41 C 27.84 66.64 27.67 66.91 27.56 67.01 C 27.44 67.10 27.19 67.50 27.00 67.90 C 26.80 68.30 26.50 68.79 26.33 69.00 C 26.16 69.20 25.99 69.53 25.94 69.72 C 25.90 69.91 25.67 70.31 25.43 70.61 C 25.20 70.91 25.00 71.22 25.00 71.30 C 25.00 71.38 24.80 71.75 24.56 72.13 C 24.32 72.51 24.07 73.00 24.00 73.23 C 23.94 73.46 23.74 73.84 23.55 74.09 C 23.37 74.33 23.11 74.82 22.97 75.17 C 22.84 75.52 22.62 75.93 22.49 76.07 C 22.36 76.21 22.14 76.66 22.00 77.06 C 21.86 77.47 21.64 77.92 21.50 78.06 C 21.36 78.21 21.14 78.65 21.00 79.05 C 20.87 79.45 20.64 79.96 20.50 80.19 C 20.36 80.41 20.13 80.93 19.99 81.33 C 19.86 81.73 19.61 82.26 19.44 82.50 C 19.27 82.74 19.08 83.22 19.00 83.56 C 18.92 83.90 18.70 84.46 18.50 84.81 C 18.31 85.15 18.08 85.72 17.99 86.06 C 17.91 86.41 17.71 86.92 17.56 87.19 C 17.40 87.47 17.15 88.18 17.00 88.76 C 16.85 89.34 16.63 89.98 16.50 90.19 C 16.37 90.39 16.16 91.02 16.02 91.59 C 15.88 92.15 15.65 92.83 15.51 93.11 C 15.37 93.38 15.15 94.11 15.01 94.74 C 14.87 95.37 14.65 96.14 14.51 96.45 C 14.37 96.77 14.13 97.64 13.99 98.40 C 13.85 99.15 13.62 100.00 13.50 100.29 C 13.37 100.58 13.15 101.49 13.01 102.32 C 12.87 103.15 12.64 104.16 12.50 104.55 C 12.37 104.95 12.14 106.13 11.99 107.17 C 11.85 108.21 11.63 109.51 11.49 110.06 C 11.36 110.61 11.17 111.96 11.06 113.06 C 10.86 115.11 10.59 117.41 10.34 119.19 C 10.24 119.85 10.19 122.64 10.20 127.38 C 10.20 133.50 10.23 134.77 10.41 135.94 C 10.53 136.69 10.71 138.21 10.81 139.31 C 11.15 142.89 11.26 143.80 11.45 144.56 C 11.55 144.97 11.78 146.29 11.95 147.48 C 12.12 148.67 12.38 149.99 12.51 150.41 C 12.65 150.84 12.87 151.88 13.01 152.73 C 13.14 153.57 13.37 154.59 13.51 154.98 C 13.65 155.37 13.87 156.21 14.00 156.84 C 14.14 157.48 14.35 158.21 14.49 158.48 C 14.62 158.74 14.83 159.43 14.95 160.01 C 15.06 160.59 15.29 161.33 15.45 161.65 C 15.62 161.98 15.86 162.72 16.00 163.31 C 16.14 163.90 16.36 164.61 16.50 164.88 C 16.64 165.15 16.84 165.75 16.95 166.22 C 17.05 166.68 17.28 167.31 17.46 167.61 C 17.63 167.90 17.88 168.50 18.00 168.93 C 18.12 169.36 18.36 169.93 18.54 170.20 C 18.71 170.47 18.95 171.02 19.06 171.43 C 19.18 171.85 19.37 172.32 19.49 172.50 C 19.62 172.67 19.84 173.20 19.99 173.67 C 20.14 174.15 20.39 174.71 20.55 174.92 C 20.70 175.14 20.92 175.63 21.04 176.01 C 21.16 176.40 21.36 176.81 21.50 176.93 C 21.63 177.05 21.89 177.54 22.06 178.01 C 22.24 178.47 22.47 178.92 22.56 179.00 C 22.66 179.08 22.83 179.44 22.95 179.79 C 23.06 180.15 23.29 180.62 23.46 180.84 C 23.62 181.06 23.87 181.51 24.01 181.84 C 24.15 182.17 24.37 182.55 24.50 182.69 C 24.63 182.83 24.83 183.16 24.94 183.43 C 25.05 183.70 25.30 184.12 25.50 184.36 C 25.69 184.61 25.91 185.02 26.00 185.28 C 26.08 185.54 26.27 185.91 26.43 186.10 C 26.59 186.28 26.87 186.72 27.05 187.06 C 27.37 187.66 27.59 188.00 28.22 188.91 C 28.37 189.13 28.65 189.59 28.84 189.92 C 29.03 190.25 29.37 190.75 29.59 191.02 C 29.82 191.30 30.00 191.60 30.00 191.69 C 30.00 191.78 30.20 192.09 30.45 192.39 C 30.69 192.68 31.00 193.12 31.13 193.37 C 31.26 193.61 31.51 193.94 31.68 194.11 C 31.86 194.27 32.00 194.47 32.00 194.55 C 32.00 194.64 32.17 194.90 32.39 195.13 C 32.60 195.37 32.87 195.76 33.00 196.00 C 33.12 196.24 33.34 196.54 33.49 196.67 C 33.63 196.81 33.89 197.16 34.07 197.46 C 34.24 197.76 34.44 198.00 34.50 198.00 C 34.57 198.00 34.76 198.22 34.93 198.49 C 35.10 198.76 35.36 199.11 35.51 199.27 C 35.65 199.43 36.07 199.96 36.45 200.44 C 36.82 200.92 37.32 201.54 37.55 201.81 C 39.04 203.54 41.07 205.84 41.87 206.69 C 43.11 208.01 47.91 212.77 48.81 213.56 C 49.20 213.91 49.75 214.40 50.04 214.67 C 51.52 216.02 52.51 216.85 54.55 218.50 C 54.94 218.81 55.51 219.27 55.82 219.53 C 56.13 219.79 56.44 220.00 56.51 220.00 C 56.58 220.00 56.82 220.18 57.05 220.41 C 57.28 220.63 57.63 220.91 57.83 221.03 C 58.03 221.15 58.44 221.44 58.75 221.68 C 59.06 221.92 59.54 222.29 59.81 222.50 C 60.43 222.98 61.07 223.43 61.55 223.72 C 61.75 223.84 62.14 224.12 62.42 224.34 C 62.71 224.57 63.16 224.85 63.44 224.98 C 63.72 225.11 64.02 225.31 64.12 225.43 C 64.22 225.55 64.58 225.79 64.93 225.96 C 65.28 226.14 65.68 226.38 65.81 226.51 C 65.95 226.63 66.29 226.83 66.56 226.94 C 66.84 227.06 67.20 227.28 67.38 227.44 C 67.55 227.60 67.95 227.85 68.26 227.99 C 68.58 228.13 68.92 228.34 69.01 228.45 C 69.11 228.57 69.58 228.85 70.06 229.09 C 71.87 229.98 72.74 230.44 72.96 230.64 C 73.09 230.75 73.41 230.92 73.69 231.00 C 73.96 231.09 74.45 231.35 74.77 231.57 C 75.09 231.79 75.51 232.01 75.70 232.05 C 75.89 232.10 76.27 232.30 76.55 232.50 C 76.83 232.70 77.32 232.92 77.62 233.00 C 77.93 233.08 78.47 233.30 78.81 233.50 C 79.16 233.69 79.66 233.91 79.94 234.00 C 80.21 234.08 80.69 234.31 81.00 234.50 C 81.31 234.70 81.82 234.92 82.12 235.00 C 82.43 235.08 82.92 235.28 83.20 235.44 C 83.48 235.61 84.12 235.85 84.61 235.99 C 85.11 236.13 85.69 236.35 85.91 236.48 C 86.13 236.62 86.76 236.85 87.31 237.00 C 87.86 237.15 88.48 237.37 88.69 237.50 C 88.89 237.63 89.54 237.85 90.11 238.00 C 90.69 238.15 91.38 238.37 91.64 238.51 C 91.90 238.64 92.61 238.86 93.21 239.00 C 93.82 239.14 94.58 239.37 94.90 239.50 C 95.22 239.64 96.07 239.86 96.79 240.00 C 97.51 240.14 98.35 240.36 98.65 240.50 C 98.95 240.63 99.87 240.85 100.69 241.00 C 101.51 241.14 102.53 241.37 102.94 241.50 C 103.35 241.64 104.64 241.89 105.81 242.06 C 106.98 242.24 108.25 242.46 108.62 242.57 C 109.00 242.67 110.30 242.84 111.50 242.95 C 112.70 243.05 114.53 243.25 115.56 243.39 C 117.42 243.63 119.88 243.84 121.81 243.91 C 124.46 244.01 131.15 243.99 133.76 243.87 Z " fill="#0152FB" fill-rule="evenodd" /><path class="cleafL" d="M 104.38 225.88 C 104.13 225.83 103.67 225.68 103.35 225.53 C 103.03 225.39 102.32 225.17 101.79 225.06 C 101.25 224.94 100.44 224.68 99.98 224.49 C 99.53 224.29 98.85 224.07 98.48 223.99 C 98.11 223.91 97.55 223.72 97.23 223.56 C 96.91 223.40 96.21 223.15 95.67 223.00 C 95.13 222.86 94.52 222.63 94.32 222.50 C 94.11 222.38 93.60 222.18 93.19 222.06 C 92.78 221.94 92.16 221.69 91.81 221.50 C 91.47 221.30 90.93 221.08 90.62 221.00 C 90.32 220.92 89.77 220.69 89.42 220.48 C 89.06 220.28 88.49 220.03 88.15 219.93 C 87.81 219.83 87.40 219.65 87.24 219.52 C 87.07 219.40 86.58 219.16 86.15 219.01 C 85.72 218.85 85.34 218.66 85.29 218.59 C 85.25 218.53 84.79 218.28 84.26 218.04 C 83.74 217.80 83.20 217.50 83.06 217.38 C 82.92 217.26 82.59 217.09 82.31 217.00 C 82.04 216.91 81.63 216.71 81.41 216.55 C 81.19 216.38 80.74 216.13 80.41 215.99 C 80.08 215.85 79.70 215.63 79.56 215.50 C 79.42 215.37 79.05 215.15 78.73 215.01 C 78.42 214.87 78.08 214.66 77.99 214.54 C 77.89 214.43 77.51 214.20 77.13 214.03 C 76.75 213.87 76.26 213.57 76.03 213.37 C 75.80 213.16 75.54 213.00 75.44 213.00 C 75.34 213.00 75.07 212.84 74.85 212.64 C 74.62 212.44 74.14 212.13 73.78 211.95 C 73.42 211.77 73.12 211.57 73.12 211.51 C 73.12 211.45 72.82 211.22 72.44 211.01 C 72.06 210.80 71.75 210.58 71.75 210.52 C 71.75 210.47 71.41 210.23 71.00 210.00 C 70.59 209.77 70.25 209.54 70.25 209.49 C 70.25 209.44 70.04 209.27 69.78 209.11 C 69.52 208.96 69.12 208.67 68.88 208.47 C 67.41 207.27 67.07 207.00 66.98 207.00 C 66.86 207.00 65.21 205.62 64.20 204.69 C 63.93 204.44 63.60 204.16 63.46 204.06 C 63.03 203.76 59.32 200.32 58.26 199.25 C 57.89 198.87 56.98 197.92 56.23 197.12 C 55.48 196.33 54.68 195.49 54.45 195.25 C 54.22 195.01 53.77 194.50 53.44 194.12 C 52.51 193.03 51.97 192.41 51.50 191.88 C 51.26 191.61 50.85 191.12 50.59 190.79 C 50.33 190.46 49.86 189.88 49.56 189.51 C 49.25 189.13 49.00 188.79 49.00 188.73 C 49.00 188.68 48.78 188.37 48.50 188.04 C 47.24 186.50 46.94 186.10 46.13 184.88 C 45.93 184.57 45.62 184.12 45.44 183.88 C 44.87 183.11 44.52 182.58 44.16 181.95 C 43.97 181.62 43.67 181.19 43.49 181.00 C 43.32 180.82 43.09 180.47 43.00 180.24 C 42.90 180.00 42.64 179.57 42.41 179.27 C 42.18 178.97 42.00 178.66 42.00 178.57 C 42.00 178.49 41.81 178.17 41.58 177.86 C 41.35 177.56 41.09 177.12 41.00 176.88 C 40.90 176.63 40.68 176.26 40.49 176.04 C 40.30 175.82 40.08 175.43 40.00 175.17 C 39.91 174.90 39.70 174.50 39.53 174.27 C 39.36 174.03 39.11 173.56 38.98 173.22 C 38.85 172.88 38.61 172.42 38.45 172.20 C 38.29 171.99 38.09 171.59 38.00 171.31 C 37.92 171.04 37.72 170.61 37.55 170.37 C 37.39 170.13 37.14 169.61 37.01 169.21 C 36.87 168.81 36.65 168.35 36.51 168.18 C 36.38 168.00 36.14 167.49 35.99 167.04 C 35.84 166.58 35.59 166.02 35.43 165.80 C 35.28 165.57 35.08 165.08 35.00 164.72 C 34.91 164.36 34.69 163.78 34.50 163.44 C 34.31 163.09 34.09 162.50 34.00 162.12 C 33.91 161.75 33.69 161.16 33.50 160.81 C 33.31 160.47 33.08 159.85 33.00 159.44 C 32.92 159.03 32.71 158.36 32.54 157.95 C 32.37 157.54 32.12 156.70 31.98 156.07 C 31.85 155.45 31.62 154.68 31.48 154.38 C 31.34 154.07 31.12 153.23 30.98 152.52 C 30.85 151.80 30.63 150.95 30.50 150.63 C 30.38 150.31 30.15 149.29 29.99 148.37 C 29.84 147.44 29.61 146.36 29.49 145.96 C 29.36 145.56 29.14 144.18 29.00 142.90 C 28.86 141.61 28.66 140.20 28.55 139.75 C 28.01 137.55 27.66 128.80 27.87 122.72 C 28.03 117.94 28.20 115.53 28.45 114.62 C 28.55 114.25 28.77 112.81 28.94 111.44 C 29.11 110.06 29.36 108.57 29.50 108.12 C 29.63 107.68 29.83 106.72 29.94 106.00 C 30.06 105.28 30.31 104.21 30.50 103.62 C 30.70 103.04 30.95 102.06 31.06 101.45 C 31.17 100.84 31.37 100.12 31.50 99.87 C 31.64 99.61 31.86 98.88 31.99 98.25 C 32.13 97.62 32.36 96.92 32.49 96.70 C 32.63 96.48 32.83 95.90 32.94 95.43 C 33.05 94.95 33.34 94.13 33.57 93.61 C 33.81 93.08 34.00 92.54 34.00 92.40 C 34.00 92.26 34.19 91.79 34.42 91.35 C 34.64 90.92 34.91 90.28 35.00 89.94 C 35.09 89.59 35.29 89.14 35.44 88.93 C 35.60 88.72 35.85 88.16 35.99 87.68 C 36.14 87.20 36.39 86.62 36.55 86.38 C 36.72 86.13 36.92 85.71 37.00 85.44 C 37.09 85.16 37.29 84.76 37.45 84.55 C 37.61 84.33 37.85 83.86 37.99 83.51 C 38.12 83.15 38.37 82.68 38.53 82.46 C 38.70 82.24 38.91 81.84 39.00 81.56 C 39.08 81.29 39.29 80.88 39.46 80.66 C 39.62 80.44 39.84 80.01 39.95 79.72 C 40.05 79.43 40.27 79.05 40.43 78.88 C 40.60 78.70 40.85 78.28 41.00 77.94 C 41.15 77.59 41.37 77.20 41.50 77.06 C 41.63 76.92 41.84 76.56 41.98 76.25 C 42.11 75.94 42.40 75.47 42.61 75.20 C 42.82 74.93 43.00 74.64 43.00 74.55 C 43.00 74.46 43.16 74.20 43.36 73.97 C 43.56 73.75 43.86 73.28 44.04 72.93 C 44.21 72.58 44.45 72.22 44.56 72.13 C 44.68 72.03 44.87 71.75 45.00 71.50 C 45.13 71.25 45.32 70.97 45.44 70.87 C 45.55 70.78 45.77 70.45 45.93 70.13 C 46.09 69.82 46.35 69.45 46.50 69.31 C 46.65 69.17 46.88 68.86 47.01 68.60 C 47.14 68.35 47.35 68.07 47.48 67.98 C 47.61 67.89 47.78 67.68 47.87 67.51 C 48.02 67.23 48.67 66.37 49.47 65.39 C 49.66 65.15 49.90 64.81 50.01 64.64 C 50.12 64.46 50.40 64.11 50.64 63.85 C 50.87 63.60 51.24 63.18 51.46 62.91 C 51.68 62.65 52.27 61.96 52.78 61.38 C 53.28 60.79 53.85 60.12 54.05 59.88 C 54.97 58.74 59.09 54.48 61.12 52.58 C 61.88 51.87 65.06 49.09 65.86 48.44 C 66.29 48.09 66.82 47.64 67.06 47.44 C 68.21 46.43 70.21 44.91 70.50 44.81 C 70.64 44.77 70.81 44.62 70.88 44.49 C 70.95 44.36 71.19 44.16 71.41 44.05 C 71.63 43.93 72.02 43.65 72.28 43.42 C 72.54 43.19 72.82 43.00 72.91 43.00 C 73.00 43.00 73.26 42.84 73.50 42.64 C 73.74 42.45 74.17 42.17 74.45 42.03 C 74.73 41.88 75.03 41.68 75.13 41.56 C 75.22 41.45 75.55 41.22 75.87 41.07 C 76.18 40.91 76.66 40.60 76.92 40.39 C 77.19 40.17 77.48 40.00 77.58 40.00 C 77.67 40.00 77.93 39.83 78.17 39.62 C 78.41 39.42 78.87 39.13 79.21 38.98 C 79.54 38.84 79.92 38.62 80.06 38.49 C 80.20 38.37 80.62 38.15 81.00 38.00 C 81.38 37.85 81.83 37.60 82.00 37.44 C 82.17 37.28 82.52 37.09 82.78 37.01 C 83.03 36.93 83.45 36.71 83.71 36.54 C 83.97 36.36 84.48 36.11 84.84 35.99 C 85.19 35.87 85.64 35.65 85.84 35.51 C 86.03 35.37 86.51 35.14 86.91 35.01 C 87.31 34.87 87.78 34.64 87.96 34.50 C 88.36 34.19 89.51 33.84 89.79 33.95 C 89.92 34.00 90.00 34.17 90.00 34.39 C 90.00 34.68 89.90 34.81 89.57 35.01 C 89.33 35.15 89.10 35.38 89.06 35.51 C 89.02 35.65 88.76 35.90 88.50 36.06 C 88.24 36.23 87.99 36.47 87.95 36.60 C 87.90 36.73 87.73 36.91 87.56 37.00 C 87.39 37.09 87.25 37.21 87.25 37.27 C 87.25 37.33 86.96 37.67 86.62 38.03 C 85.28 39.42 83.57 41.35 82.56 42.61 C 82.22 43.05 81.78 43.57 81.58 43.78 C 81.39 44.00 81.09 44.38 80.92 44.65 C 80.76 44.91 80.57 45.12 80.51 45.12 C 80.45 45.13 80.27 45.34 80.12 45.59 C 79.96 45.85 79.68 46.23 79.50 46.44 C 79.32 46.64 79.05 47.01 78.90 47.25 C 78.76 47.49 78.50 47.83 78.32 47.99 C 78.14 48.16 78.00 48.36 78.00 48.45 C 78.00 48.53 77.86 48.73 77.68 48.89 C 77.51 49.06 77.25 49.40 77.12 49.65 C 76.98 49.91 76.70 50.31 76.50 50.54 C 76.29 50.78 76.04 51.16 75.95 51.39 C 75.85 51.63 75.65 51.93 75.49 52.07 C 75.34 52.20 75.11 52.54 74.98 52.81 C 74.85 53.09 74.56 53.58 74.34 53.90 C 74.12 54.22 73.81 54.67 73.66 54.90 C 73.50 55.13 73.21 55.65 73.01 56.07 C 72.81 56.49 72.56 56.90 72.45 56.99 C 72.35 57.08 72.14 57.47 72.00 57.86 C 71.85 58.24 71.63 58.67 71.50 58.81 C 71.37 58.95 71.12 59.40 70.94 59.81 C 70.76 60.22 70.53 60.65 70.43 60.76 C 70.32 60.87 70.13 61.27 70.00 61.63 C 69.87 61.99 69.62 62.49 69.45 62.74 C 69.28 62.99 69.08 63.44 69.00 63.75 C 68.92 64.06 68.70 64.59 68.50 64.94 C 68.31 65.28 68.06 65.86 67.94 66.22 C 67.82 66.59 67.60 67.12 67.44 67.41 C 67.28 67.70 67.08 68.25 67.00 68.62 C 66.91 69.00 66.69 69.62 66.50 70.00 C 66.31 70.38 66.06 71.11 65.94 71.62 C 65.82 72.14 65.61 72.77 65.48 73.03 C 65.35 73.29 65.15 73.94 65.05 74.47 C 64.94 75.00 64.71 75.76 64.55 76.15 C 64.39 76.54 64.12 77.66 63.95 78.65 C 63.78 79.63 63.55 80.64 63.45 80.89 C 63.35 81.14 63.15 82.26 63.00 83.39 C 62.86 84.52 62.66 85.83 62.56 86.31 C 62.07 88.63 61.81 94.06 61.91 99.88 C 62.00 104.95 62.16 107.47 62.50 109.19 C 62.64 109.88 62.86 111.39 62.99 112.56 C 63.13 113.73 63.35 115.03 63.49 115.44 C 63.63 115.85 63.85 116.90 63.99 117.77 C 64.13 118.64 64.36 119.65 64.51 120.01 C 64.65 120.38 64.87 121.20 65.00 121.83 C 65.13 122.47 65.38 123.31 65.54 123.71 C 65.71 124.11 65.92 124.78 66.00 125.19 C 66.09 125.60 66.31 126.25 66.50 126.62 C 66.68 127.00 66.91 127.59 66.99 127.94 C 67.07 128.28 67.30 128.84 67.50 129.19 C 67.69 129.53 67.92 130.07 68.00 130.38 C 68.08 130.68 68.31 131.22 68.50 131.56 C 68.69 131.91 68.92 132.44 69.00 132.75 C 69.08 133.06 69.30 133.54 69.49 133.81 C 69.68 134.09 69.90 134.51 69.98 134.76 C 70.06 135.00 70.32 135.51 70.56 135.88 C 70.80 136.25 71.00 136.62 71.00 136.70 C 71.00 136.78 71.19 137.13 71.43 137.47 C 71.67 137.82 71.95 138.31 72.06 138.58 C 72.17 138.84 72.37 139.17 72.49 139.31 C 72.62 139.45 72.87 139.85 73.05 140.21 C 73.23 140.57 73.45 140.91 73.54 140.96 C 73.64 141.02 73.86 141.29 74.05 141.56 C 75.15 143.20 75.61 143.80 76.56 144.83 C 76.84 145.12 77.30 145.64 77.60 145.97 C 77.90 146.29 78.56 147.01 79.07 147.56 C 80.49 149.08 81.46 150.21 82.56 151.62 C 82.91 152.05 83.36 152.60 83.56 152.82 C 83.77 153.04 84.16 153.52 84.44 153.87 C 84.71 154.23 85.12 154.73 85.34 154.99 C 85.71 155.42 86.05 155.89 86.96 157.19 C 87.15 157.46 87.41 157.76 87.53 157.85 C 87.65 157.94 87.86 158.23 87.99 158.49 C 88.12 158.74 88.32 159.03 88.44 159.13 C 88.55 159.22 88.77 159.55 88.93 159.87 C 89.09 160.18 89.35 160.55 89.50 160.69 C 89.65 160.82 89.88 161.13 90.00 161.38 C 90.12 161.62 90.34 161.92 90.49 162.05 C 90.64 162.19 90.87 162.55 91.00 162.85 C 91.14 163.15 91.42 163.59 91.62 163.83 C 91.83 164.07 92.00 164.34 92.00 164.44 C 92.00 164.54 92.17 164.81 92.37 165.04 C 92.58 165.27 92.86 165.73 93.00 166.06 C 93.14 166.39 93.42 166.85 93.63 167.09 C 93.83 167.32 94.00 167.58 94.00 167.67 C 94.00 167.77 94.17 168.05 94.37 168.30 C 94.57 168.56 94.83 169.03 94.95 169.35 C 95.07 169.67 95.27 170.05 95.39 170.19 C 95.51 170.33 95.75 170.75 95.92 171.13 C 96.09 171.52 96.37 172.04 96.54 172.30 C 96.72 172.55 96.95 173.03 97.06 173.37 C 97.17 173.70 97.37 174.07 97.51 174.19 C 97.64 174.32 97.86 174.77 98.00 175.21 C 98.13 175.64 98.35 176.15 98.49 176.34 C 98.63 176.53 98.86 177.01 98.99 177.41 C 99.13 177.81 99.35 178.28 99.49 178.46 C 99.63 178.64 99.87 179.18 100.01 179.66 C 100.15 180.14 100.40 180.74 100.56 180.99 C 100.72 181.24 100.92 181.75 101.00 182.12 C 101.08 182.50 101.28 183.04 101.44 183.32 C 101.60 183.60 101.85 184.30 102.00 184.87 C 102.15 185.45 102.37 186.13 102.51 186.39 C 102.64 186.65 102.86 187.36 103.00 187.96 C 103.14 188.57 103.39 189.37 103.55 189.75 C 103.71 190.13 103.94 190.96 104.06 191.60 C 104.17 192.24 104.38 193.03 104.51 193.35 C 104.65 193.67 104.88 194.66 105.01 195.56 C 105.15 196.45 105.37 197.58 105.50 198.06 C 105.63 198.54 105.88 200.23 106.06 201.81 C 106.23 203.39 106.47 205.25 106.59 205.94 C 106.76 206.98 106.80 208.13 106.80 212.88 C 106.80 218.09 106.78 218.69 106.53 220.12 C 106.39 220.98 106.20 222.39 106.13 223.25 C 105.87 226.15 105.84 226.18 104.38 225.88 Z " fill="#0152FB" fill-rule="evenodd" /><path class="cleafR" d="M 149.26 225.83 C 149.16 225.71 149.02 224.93 148.92 223.97 C 148.83 223.06 148.63 221.53 148.47 220.56 C 148.22 218.94 148.20 218.40 148.20 213.31 C 148.20 208.69 148.23 207.64 148.41 206.75 C 148.52 206.17 148.76 204.40 148.93 202.82 C 149.11 201.24 149.36 199.56 149.50 199.07 C 149.63 198.59 149.86 197.37 150.01 196.38 C 150.15 195.38 150.37 194.32 150.50 194.02 C 150.64 193.73 150.85 192.91 150.99 192.20 C 151.12 191.49 151.37 190.58 151.54 190.18 C 151.71 189.77 151.92 189.07 152.00 188.62 C 152.08 188.18 152.31 187.48 152.50 187.06 C 152.70 186.65 152.92 185.97 153.00 185.56 C 153.08 185.15 153.31 184.53 153.50 184.19 C 153.69 183.84 153.94 183.17 154.05 182.70 C 154.17 182.22 154.37 181.69 154.50 181.51 C 154.62 181.33 154.82 180.85 154.94 180.43 C 155.05 180.02 155.28 179.49 155.45 179.25 C 155.61 179.01 155.86 178.47 156.00 178.06 C 156.14 177.65 156.36 177.17 156.49 176.99 C 156.63 176.81 156.84 176.33 156.97 175.92 C 157.11 175.52 157.36 174.97 157.55 174.70 C 157.73 174.43 157.93 174.00 158.00 173.74 C 158.07 173.48 158.27 173.10 158.43 172.90 C 158.60 172.70 158.86 172.24 159.00 171.88 C 159.14 171.51 159.40 171.05 159.56 170.86 C 159.72 170.67 159.94 170.23 160.06 169.89 C 160.17 169.55 160.35 169.19 160.46 169.10 C 160.57 169.01 160.82 168.59 161.01 168.17 C 161.20 167.75 161.41 167.37 161.49 167.32 C 161.57 167.27 161.78 166.94 161.96 166.58 C 162.14 166.23 162.44 165.75 162.64 165.53 C 162.84 165.30 163.00 165.04 163.00 164.94 C 163.00 164.84 163.17 164.57 163.38 164.33 C 163.58 164.10 163.83 163.71 163.93 163.47 C 164.03 163.23 164.25 162.87 164.42 162.67 C 164.58 162.47 164.83 162.09 164.97 161.81 C 165.11 161.54 165.35 161.20 165.50 161.06 C 165.65 160.93 165.88 160.61 166.00 160.37 C 166.13 160.12 166.32 159.84 166.44 159.75 C 166.55 159.66 166.78 159.32 166.94 159.00 C 167.10 158.68 167.33 158.34 167.44 158.24 C 167.56 158.15 167.80 157.84 167.97 157.56 C 168.15 157.29 168.39 156.99 168.52 156.90 C 168.65 156.81 168.84 156.56 168.96 156.34 C 169.07 156.12 169.33 155.73 169.55 155.49 C 169.76 155.24 170.19 154.71 170.50 154.31 C 171.20 153.42 172.00 152.45 172.53 151.86 C 173.15 151.18 173.79 150.41 174.64 149.38 C 175.43 148.39 176.42 147.29 178.00 145.62 C 179.71 143.81 180.58 142.78 181.00 142.06 C 181.16 141.79 181.48 141.35 181.71 141.09 C 181.94 140.84 182.12 140.57 182.12 140.51 C 182.12 140.45 182.32 140.16 182.56 139.88 C 182.80 139.59 183.00 139.28 183.00 139.19 C 183.00 139.09 183.20 138.76 183.43 138.45 C 183.67 138.14 183.95 137.68 184.06 137.43 C 184.16 137.18 184.38 136.82 184.55 136.62 C 184.72 136.42 184.94 135.98 185.06 135.64 C 185.17 135.31 185.37 134.93 185.50 134.81 C 185.63 134.69 185.83 134.31 185.95 133.95 C 186.06 133.60 186.31 133.06 186.50 132.75 C 186.69 132.44 186.94 131.87 187.05 131.49 C 187.16 131.10 187.37 130.64 187.51 130.45 C 187.66 130.27 187.86 129.79 187.96 129.40 C 188.06 129.01 188.30 128.41 188.49 128.06 C 188.69 127.72 188.94 127.04 189.06 126.56 C 189.17 126.08 189.37 125.52 189.50 125.30 C 189.63 125.09 189.86 124.42 190.00 123.80 C 190.14 123.19 190.37 122.41 190.51 122.08 C 190.65 121.75 190.88 120.89 191.01 120.18 C 191.15 119.47 191.37 118.63 191.52 118.30 C 191.66 117.98 191.88 116.98 192.01 116.08 C 192.15 115.18 192.34 114.18 192.44 113.88 C 192.70 113.08 192.84 112.21 193.06 110.00 C 193.17 108.93 193.37 107.38 193.51 106.54 C 194.07 103.05 194.03 90.36 193.44 88.73 C 193.41 88.64 193.24 87.21 193.07 85.57 C 192.87 83.72 192.66 82.28 192.51 81.82 C 192.37 81.40 192.15 80.35 192.01 79.48 C 191.87 78.61 191.64 77.60 191.50 77.24 C 191.35 76.88 191.13 76.07 191.01 75.44 C 190.88 74.81 190.66 74.03 190.51 73.72 C 190.37 73.40 190.14 72.66 190.00 72.07 C 189.86 71.47 189.64 70.77 189.51 70.51 C 189.37 70.25 189.17 69.64 189.05 69.17 C 188.94 68.70 188.71 68.07 188.55 67.76 C 188.38 67.46 188.16 66.87 188.05 66.45 C 187.94 66.03 187.70 65.43 187.50 65.12 C 187.31 64.82 187.08 64.32 187.00 64.02 C 186.92 63.72 186.66 63.11 186.43 62.66 C 186.19 62.22 186.00 61.76 186.00 61.64 C 186.00 61.52 185.80 61.12 185.56 60.75 C 185.32 60.38 185.06 59.88 184.98 59.63 C 184.90 59.39 184.71 59.04 184.56 58.85 C 184.40 58.66 184.18 58.24 184.05 57.91 C 183.93 57.58 183.70 57.13 183.54 56.91 C 183.38 56.69 183.13 56.24 182.99 55.91 C 182.85 55.58 182.63 55.20 182.50 55.06 C 182.37 54.92 182.15 54.54 182.00 54.20 C 181.86 53.86 181.58 53.40 181.37 53.16 C 181.17 52.93 181.00 52.66 181.00 52.57 C 181.00 52.48 180.82 52.17 180.59 51.90 C 180.37 51.63 180.03 51.13 179.84 50.79 C 179.48 50.17 179.13 49.63 178.56 48.88 C 178.38 48.63 178.07 48.18 177.87 47.88 C 177.11 46.72 176.51 45.91 175.68 44.90 C 175.47 44.65 175.16 44.24 175.00 44.00 C 174.84 43.76 174.54 43.37 174.35 43.12 C 174.15 42.88 173.74 42.38 173.43 42.00 C 172.76 41.18 172.26 40.59 171.72 40.00 C 171.51 39.76 170.51 38.66 169.51 37.56 C 168.51 36.46 167.40 35.28 167.05 34.94 C 166.28 34.17 165.95 33.69 166.04 33.44 C 166.15 33.18 166.62 33.20 166.93 33.49 C 167.07 33.62 167.54 33.85 167.98 34.00 C 168.42 34.14 168.92 34.37 169.11 34.50 C 169.29 34.64 169.75 34.85 170.12 34.98 C 170.50 35.11 171.03 35.36 171.30 35.54 C 171.57 35.73 172.02 35.93 172.30 36.01 C 172.58 36.08 173.04 36.30 173.31 36.49 C 173.59 36.68 174.07 36.95 174.38 37.09 C 174.68 37.22 175.01 37.42 175.10 37.53 C 175.19 37.64 175.54 37.83 175.88 37.95 C 176.21 38.07 176.65 38.31 176.84 38.48 C 177.03 38.64 177.41 38.88 177.69 39.00 C 177.96 39.12 178.36 39.36 178.56 39.53 C 178.77 39.70 179.13 39.94 179.38 40.06 C 179.62 40.18 179.93 40.39 180.07 40.52 C 180.31 40.74 181.09 41.26 182.05 41.84 C 182.25 41.96 182.62 42.24 182.86 42.45 C 183.11 42.67 183.50 42.94 183.73 43.05 C 183.95 43.17 184.17 43.34 184.20 43.43 C 184.24 43.53 184.57 43.79 184.95 44.02 C 185.32 44.24 185.62 44.47 185.62 44.52 C 185.62 44.56 185.84 44.73 186.09 44.89 C 186.55 45.16 186.73 45.30 188.12 46.45 C 189.25 47.38 192.28 50.03 193.04 50.75 C 194.16 51.82 198.98 56.67 199.40 57.15 C 199.65 57.45 200.16 58.02 200.53 58.44 C 201.45 59.46 202.96 61.24 203.56 62.00 C 203.84 62.35 204.20 62.79 204.37 62.97 C 204.54 63.16 204.85 63.55 205.06 63.84 C 205.27 64.13 205.67 64.69 205.95 65.09 C 206.24 65.49 206.59 65.92 206.73 66.05 C 206.88 66.18 207.00 66.36 207.00 66.44 C 207.00 66.52 207.17 66.78 207.38 67.01 C 207.94 67.65 208.94 69.02 209.17 69.47 C 209.29 69.69 209.44 69.88 209.50 69.88 C 209.57 69.88 209.74 70.11 209.89 70.41 C 210.04 70.70 210.29 71.10 210.46 71.30 C 210.63 71.50 210.88 71.89 211.02 72.17 C 211.17 72.46 211.44 72.87 211.64 73.10 C 211.84 73.32 212.00 73.58 212.00 73.67 C 212.00 73.76 212.19 74.09 212.43 74.40 C 212.66 74.71 212.94 75.17 213.05 75.43 C 213.16 75.69 213.38 76.06 213.55 76.26 C 213.72 76.46 213.92 76.83 214.00 77.09 C 214.09 77.35 214.28 77.70 214.44 77.88 C 214.60 78.05 214.87 78.50 215.03 78.88 C 215.20 79.25 215.43 79.64 215.54 79.73 C 215.65 79.82 215.86 80.21 216.00 80.59 C 216.14 80.96 216.39 81.45 216.55 81.67 C 216.72 81.89 216.91 82.29 216.99 82.57 C 217.06 82.84 217.28 83.29 217.48 83.57 C 217.68 83.84 217.93 84.33 218.04 84.65 C 218.14 84.98 218.37 85.43 218.54 85.65 C 218.71 85.88 218.91 86.29 219.00 86.56 C 219.08 86.84 219.31 87.34 219.50 87.69 C 219.69 88.03 219.91 88.61 220.00 88.97 C 220.08 89.33 220.28 89.82 220.45 90.06 C 220.61 90.30 220.84 90.82 220.95 91.22 C 221.07 91.61 221.31 92.22 221.50 92.56 C 221.69 92.91 221.92 93.50 222.00 93.88 C 222.08 94.25 222.29 94.80 222.45 95.08 C 222.61 95.37 222.86 96.09 223.00 96.68 C 223.14 97.28 223.37 98.02 223.51 98.33 C 223.65 98.64 223.88 99.41 224.02 100.04 C 224.15 100.67 224.38 101.44 224.52 101.75 C 224.66 102.06 224.88 102.90 225.02 103.61 C 225.15 104.32 225.38 105.19 225.51 105.54 C 225.65 105.88 225.87 106.90 226.01 107.80 C 226.15 108.70 226.37 109.86 226.51 110.38 C 226.64 110.89 226.87 112.38 227.00 113.69 C 227.14 114.99 227.36 116.82 227.50 117.75 C 228.12 121.86 228.15 133.30 227.55 136.56 C 227.45 137.11 227.26 138.57 227.12 139.81 C 226.83 142.50 226.67 143.62 226.50 144.06 C 226.43 144.24 226.24 145.25 226.07 146.29 C 225.90 147.33 225.65 148.52 225.51 148.93 C 225.36 149.33 225.13 150.28 224.99 151.04 C 224.84 151.80 224.61 152.67 224.48 152.99 C 224.34 153.30 224.12 154.08 223.99 154.72 C 223.86 155.35 223.62 156.14 223.46 156.47 C 223.29 156.79 223.07 157.48 222.95 157.99 C 222.84 158.49 222.64 159.08 222.51 159.30 C 222.38 159.51 222.15 160.11 222.00 160.62 C 221.85 161.14 221.62 161.70 221.50 161.88 C 221.38 162.05 221.15 162.60 221.00 163.11 C 220.85 163.62 220.60 164.24 220.44 164.49 C 220.27 164.74 220.06 165.26 219.96 165.65 C 219.86 166.04 219.66 166.53 219.51 166.74 C 219.36 166.95 219.13 167.44 218.99 167.83 C 218.86 168.23 218.64 168.67 218.51 168.81 C 218.38 168.95 218.16 169.36 218.02 169.73 C 217.88 170.10 217.62 170.61 217.45 170.86 C 217.28 171.11 217.05 171.55 216.95 171.85 C 216.84 172.14 216.62 172.56 216.46 172.78 C 216.29 173.01 216.10 173.38 216.02 173.61 C 215.94 173.85 215.73 174.23 215.55 174.46 C 215.38 174.69 215.13 175.12 214.99 175.42 C 214.86 175.72 214.66 176.04 214.54 176.14 C 214.43 176.23 214.19 176.65 214.00 177.06 C 213.81 177.47 213.56 177.90 213.44 178.00 C 213.32 178.10 213.11 178.41 212.98 178.69 C 212.73 179.21 212.10 180.18 211.59 180.81 C 211.42 181.02 211.19 181.38 211.06 181.62 C 210.94 181.87 210.67 182.26 210.47 182.49 C 210.26 182.73 210.02 183.09 209.93 183.31 C 209.84 183.52 209.65 183.80 209.50 183.94 C 209.35 184.08 209.14 184.36 209.03 184.56 C 208.92 184.77 208.70 185.08 208.53 185.25 C 208.16 185.63 207.52 186.47 206.93 187.34 C 206.69 187.70 206.44 188.00 206.37 188.00 C 206.31 188.00 206.17 188.16 206.07 188.36 C 205.97 188.55 205.70 188.91 205.48 189.15 C 205.25 189.39 204.86 189.83 204.60 190.14 C 204.35 190.44 203.92 190.94 203.65 191.25 C 203.39 191.56 203.09 191.93 202.99 192.08 C 202.50 192.80 195.50 200.00 195.29 200.00 C 195.23 200.00 194.79 200.38 194.31 200.84 C 193.15 201.95 192.18 202.82 191.32 203.50 C 190.94 203.81 190.12 204.48 189.50 205.00 C 188.89 205.52 188.12 206.15 187.79 206.40 C 187.46 206.66 186.93 207.06 186.62 207.31 C 186.32 207.55 185.85 207.86 185.59 208.00 C 185.33 208.14 185.08 208.35 185.04 208.45 C 185.00 208.55 184.77 208.74 184.52 208.87 C 184.27 208.99 183.95 209.22 183.81 209.38 C 183.68 209.53 183.24 209.82 182.84 210.02 C 182.45 210.22 182.12 210.43 182.12 210.50 C 182.12 210.57 181.85 210.76 181.52 210.93 C 181.19 211.09 180.84 211.32 180.75 211.44 C 180.65 211.55 180.26 211.80 179.88 212.00 C 179.49 212.20 179.10 212.45 179.00 212.56 C 178.91 212.67 178.63 212.85 178.38 212.95 C 178.14 213.05 177.73 213.31 177.47 213.51 C 177.21 213.72 176.81 213.97 176.58 214.06 C 176.35 214.16 176.09 214.33 176.00 214.44 C 175.91 214.55 175.48 214.80 175.05 215.00 C 174.61 215.19 174.15 215.46 174.01 215.59 C 173.87 215.72 173.55 215.90 173.29 215.99 C 173.03 216.09 172.54 216.35 172.20 216.58 C 171.87 216.81 171.53 217.00 171.44 217.00 C 171.35 217.00 171.00 217.19 170.67 217.42 C 170.34 217.65 169.80 217.92 169.47 218.03 C 169.15 218.14 168.70 218.37 168.47 218.54 C 168.25 218.71 167.84 218.91 167.56 219.00 C 167.29 219.08 166.86 219.28 166.62 219.45 C 166.38 219.61 165.85 219.86 165.44 220.00 C 165.02 220.14 164.48 220.39 164.24 220.56 C 163.99 220.72 163.54 220.92 163.24 221.00 C 162.93 221.08 162.41 221.30 162.06 221.50 C 161.72 221.69 161.21 221.91 160.94 222.00 C 160.66 222.08 160.21 222.28 159.93 222.44 C 159.66 222.60 159.07 222.82 158.63 222.94 C 158.19 223.05 157.52 223.30 157.13 223.50 C 156.75 223.69 156.13 223.92 155.75 224.00 C 155.37 224.09 154.75 224.31 154.38 224.50 C 154.00 224.68 153.30 224.93 152.83 225.05 C 152.36 225.16 151.72 225.39 151.40 225.56 C 150.62 225.97 149.49 226.11 149.26 225.83 Z " fill="#0152FB" fill-rule="evenodd" /><path class="ctrap" d="M 76.79 130.14 C 76.00 130.04 75.93 129.98 76.16 129.60 C 76.53 129.03 76.75 128.02 77.00 125.81 C 77.15 124.58 77.37 123.17 77.50 122.69 C 77.63 122.21 77.86 120.74 78.00 119.44 C 78.15 118.13 78.37 116.64 78.50 116.12 C 78.64 115.61 78.83 114.32 78.94 113.25 C 79.17 110.97 79.20 110.73 79.51 109.50 C 79.64 108.98 79.88 107.43 80.05 106.05 C 80.22 104.67 80.43 103.38 80.50 103.18 C 80.65 102.80 80.90 101.11 81.13 99.00 C 81.20 98.28 81.37 97.27 81.51 96.77 C 81.64 96.26 81.86 94.80 82.00 93.52 C 82.13 92.24 82.39 90.54 82.56 89.75 C 82.73 88.96 82.95 87.50 83.06 86.50 C 83.17 85.50 83.37 84.29 83.50 83.81 C 83.63 83.33 83.85 81.94 83.99 80.73 C 84.13 79.51 84.36 78.00 84.50 77.37 C 84.64 76.74 84.87 75.23 85.01 74.02 C 85.15 72.80 85.37 71.36 85.50 70.81 C 85.63 70.26 85.85 68.83 86.00 67.62 C 86.14 66.42 86.37 65.01 86.50 64.50 C 86.63 63.98 86.86 62.61 87.00 61.45 C 87.14 60.28 87.37 58.91 87.50 58.39 C 87.64 57.87 87.84 56.55 87.95 55.44 C 88.18 53.17 88.30 52.69 88.76 52.35 C 89.06 52.12 89.42 52.11 98.04 52.12 C 107.05 52.12 107.38 52.14 107.65 52.55 C 107.70 52.63 107.75 61.86 107.75 73.06 C 107.75 94.95 107.77 95.79 108.39 97.50 C 108.53 97.88 108.78 98.64 108.96 99.19 C 109.13 99.74 109.36 100.28 109.46 100.39 C 109.56 100.50 109.75 100.90 109.89 101.27 C 110.03 101.64 110.28 102.08 110.44 102.25 C 110.60 102.42 110.85 102.82 110.99 103.14 C 111.13 103.46 111.34 103.79 111.45 103.89 C 111.57 103.98 111.79 104.27 111.95 104.52 C 112.37 105.18 115.11 107.93 115.59 108.18 C 115.82 108.29 116.00 108.44 116.00 108.50 C 116.00 108.57 116.33 108.79 116.74 109.00 C 117.15 109.20 117.52 109.43 117.57 109.51 C 117.62 109.59 117.96 109.79 118.33 109.95 C 118.70 110.11 119.21 110.39 119.47 110.55 C 119.73 110.72 120.29 110.95 120.72 111.06 C 121.16 111.17 121.73 111.37 122.00 111.51 C 122.84 111.95 124.67 112.16 127.69 112.17 C 130.67 112.17 132.59 111.96 133.47 111.52 C 133.73 111.39 134.35 111.16 134.84 111.01 C 135.34 110.87 135.95 110.61 136.19 110.44 C 136.44 110.28 136.85 110.07 137.10 109.99 C 137.35 109.91 137.70 109.72 137.88 109.56 C 138.05 109.41 138.38 109.18 138.62 109.06 C 139.28 108.72 141.87 106.68 141.87 106.49 C 141.87 106.45 142.27 106.00 142.75 105.49 C 143.24 104.98 143.78 104.31 143.96 104.00 C 144.14 103.69 144.39 103.32 144.51 103.19 C 144.64 103.05 144.83 102.72 144.94 102.45 C 145.05 102.18 145.30 101.76 145.50 101.51 C 145.69 101.26 145.95 100.75 146.07 100.38 C 146.19 100.00 146.39 99.54 146.52 99.35 C 146.65 99.17 146.84 98.63 146.95 98.16 C 147.06 97.70 147.30 96.83 147.48 96.25 L 147.81 95.19 L 147.88 73.85 C 147.93 54.59 147.96 52.49 148.14 52.31 C 148.31 52.13 149.30 52.11 157.57 52.12 L 166.81 52.12 L 167.15 52.49 C 167.59 52.98 167.68 53.37 168.00 56.12 C 168.15 57.40 168.37 58.78 168.50 59.21 C 168.63 59.63 168.85 61.01 169.00 62.27 C 169.14 63.53 169.34 64.87 169.44 65.25 C 169.54 65.63 169.79 67.21 170.00 68.77 C 170.21 70.33 170.44 71.77 170.51 71.96 C 170.59 72.15 170.72 72.96 170.82 73.75 C 170.91 74.54 171.08 75.91 171.18 76.79 C 171.28 77.67 171.45 78.66 171.55 78.99 C 171.65 79.32 171.85 80.62 172.00 81.89 C 172.15 83.15 172.38 84.58 172.50 85.06 C 172.63 85.54 172.86 86.98 173.00 88.25 C 173.15 89.52 173.37 90.96 173.50 91.44 C 173.63 91.92 173.77 92.62 173.80 93.00 C 174.13 96.23 174.30 97.43 174.50 98.19 C 174.63 98.67 174.86 100.08 175.00 101.31 C 175.15 102.55 175.37 104.02 175.50 104.57 C 175.63 105.13 175.85 106.62 176.00 107.88 C 176.15 109.15 176.37 110.58 176.50 111.06 C 176.63 111.54 176.86 113.06 177.00 114.44 C 177.15 115.81 177.37 117.42 177.50 118.00 C 177.63 118.58 177.85 120.10 177.99 121.38 C 178.14 122.65 178.36 124.05 178.50 124.50 C 178.63 124.95 178.85 126.27 178.99 127.44 C 179.17 128.99 179.29 129.60 179.43 129.70 C 179.73 129.91 179.67 129.97 179.03 130.11 C 178.37 130.25 77.95 130.28 76.79 130.14 Z " fill="#0CC0FB" fill-rule="evenodd" /><path class="" d="M 75.16 136.04 C 74.88 135.77 74.88 135.69 74.88 133.35 C 74.88 132.02 74.91 130.81 74.96 130.65 C 75.06 130.24 75.87 129.85 76.19 130.04 C 76.57 130.27 178.25 130.30 179.12 130.08 C 179.67 129.93 179.80 129.94 180.23 130.13 C 180.49 130.25 180.74 130.43 180.78 130.54 C 180.82 130.64 180.87 131.86 180.89 133.24 C 180.92 135.61 180.90 135.78 180.67 136.01 C 180.43 136.26 180.08 136.26 127.93 136.28 L 75.44 136.31 L 75.16 136.04 Z " fill="#0152FB" fill-rule="evenodd" /><g class="cspin"><circle class="carc" cx="128" cy="127" r="117.5" fill="none" stroke="#0CC0FB" stroke-width="14" stroke-linecap="round" pathLength="100"/></g><g stroke="#0CC0FB" stroke-width="4" stroke-linecap="round" class="csparks"><line x1="104" y1="70" x2="96" y2="64"/><line x1="150" y1="70" x2="158" y2="64"/><line x1="104" y1="96" x2="95" y2="100"/><line x1="150" y1="96" x2="159" y2="100"/></g><path class="cbolt" d="M 117.33 106.56 C 117.01 106.24 117.06 105.28 117.43 104.73 C 117.60 104.49 117.85 103.83 117.99 103.26 C 118.13 102.70 118.38 102.01 118.54 101.72 C 118.71 101.43 118.92 100.88 119.00 100.50 C 119.09 100.12 119.31 99.53 119.50 99.19 C 119.69 98.84 119.94 98.17 120.06 97.69 C 120.17 97.21 120.37 96.64 120.50 96.43 C 120.63 96.23 120.86 95.61 121.01 95.06 C 121.15 94.51 121.38 93.89 121.50 93.69 C 121.62 93.48 121.84 92.88 121.98 92.36 C 122.12 91.83 122.35 91.21 122.49 90.98 C 122.63 90.74 122.86 90.11 122.99 89.58 C 123.12 89.04 123.38 88.39 123.55 88.14 C 123.92 87.62 123.99 86.82 123.70 86.44 C 123.54 86.21 123.29 86.20 119.40 86.19 C 116.18 86.18 115.23 86.14 115.07 86.01 C 114.75 85.74 114.84 85.19 115.31 84.58 C 115.54 84.27 115.86 83.77 116.01 83.48 C 116.16 83.18 116.44 82.75 116.64 82.53 C 116.84 82.30 117.00 82.04 117.00 81.94 C 117.00 81.84 117.17 81.57 117.37 81.34 C 117.58 81.10 117.85 80.66 117.98 80.36 C 118.11 80.06 118.36 79.63 118.55 79.42 C 118.73 79.20 118.96 78.83 119.05 78.60 C 119.15 78.37 119.35 78.07 119.49 77.94 C 119.64 77.81 119.87 77.46 120.00 77.16 C 120.13 76.86 120.41 76.41 120.62 76.15 C 120.83 75.90 121.00 75.63 121.00 75.55 C 121.00 75.47 121.18 75.19 121.39 74.92 C 121.61 74.66 121.89 74.21 122.02 73.92 C 122.14 73.64 122.34 73.33 122.45 73.24 C 122.56 73.15 122.81 72.75 123.01 72.36 C 123.21 71.97 123.43 71.61 123.50 71.56 C 123.57 71.52 123.79 71.16 123.99 70.76 C 124.19 70.37 124.45 69.97 124.56 69.88 C 124.67 69.78 124.84 69.52 124.94 69.28 C 125.04 69.04 125.27 68.68 125.44 68.47 C 125.62 68.26 125.90 67.83 126.06 67.51 C 126.22 67.18 126.45 66.84 126.56 66.75 C 126.68 66.66 126.90 66.32 127.06 66.00 C 127.22 65.68 127.45 65.34 127.57 65.25 C 127.68 65.15 127.90 64.78 128.06 64.43 C 128.22 64.07 128.41 63.74 128.49 63.69 C 128.57 63.65 128.76 63.34 128.93 63.02 C 129.09 62.70 129.35 62.33 129.50 62.19 C 129.65 62.05 129.88 61.74 130.00 61.49 C 130.13 61.25 130.32 60.97 130.44 60.87 C 130.55 60.78 130.80 60.39 131.00 60.00 C 131.20 59.61 131.45 59.22 131.56 59.12 C 131.68 59.03 131.86 58.74 131.96 58.48 C 132.14 58.04 133.18 57.12 133.50 57.12 C 133.68 57.12 133.65 57.65 133.45 58.14 C 133.35 58.38 133.15 59.55 133.00 60.74 C 132.85 61.93 132.62 63.21 132.49 63.59 C 132.36 63.97 132.14 65.19 132.00 66.30 C 131.86 67.41 131.66 68.57 131.55 68.88 C 131.45 69.18 131.20 70.56 131.00 71.94 C 130.80 73.31 130.55 74.68 130.45 74.97 C 130.19 75.69 129.85 78.21 129.90 79.03 C 129.93 79.58 129.99 79.71 130.24 79.83 C 130.45 79.94 131.63 79.99 134.24 79.99 C 137.61 80.01 137.96 80.03 138.16 80.23 C 138.38 80.44 138.37 80.48 138.11 81.20 C 137.96 81.60 137.70 82.12 137.53 82.34 C 137.37 82.57 137.13 83.06 137.00 83.44 C 136.87 83.81 136.63 84.31 136.46 84.53 C 136.29 84.75 136.07 85.20 135.96 85.53 C 135.86 85.85 135.63 86.30 135.46 86.53 C 135.29 86.75 135.09 87.16 135.00 87.44 C 134.92 87.71 134.71 88.15 134.54 88.40 C 134.37 88.65 134.14 89.10 134.04 89.40 C 133.94 89.70 133.69 90.19 133.49 90.51 C 133.30 90.82 133.05 91.30 132.96 91.57 C 132.86 91.84 132.61 92.34 132.39 92.68 C 132.18 93.02 132.00 93.39 132.00 93.50 C 132.00 93.61 131.82 93.98 131.61 94.32 C 131.39 94.66 131.11 95.23 130.99 95.59 C 130.87 95.95 130.63 96.43 130.46 96.66 C 130.29 96.88 130.07 97.33 129.96 97.65 C 129.86 97.98 129.63 98.43 129.46 98.65 C 129.29 98.88 129.09 99.28 129.02 99.54 C 128.95 99.80 128.72 100.28 128.51 100.61 C 128.30 100.94 128.05 101.47 127.95 101.78 C 127.86 102.09 127.64 102.54 127.47 102.77 C 127.30 103.00 127.06 103.48 126.95 103.84 C 126.83 104.19 126.63 104.62 126.51 104.77 C 126.39 104.93 126.17 105.32 126.03 105.65 C 125.57 106.69 125.60 106.68 121.30 106.73 C 117.96 106.76 117.51 106.74 117.33 106.56 Z " fill="#0152FB" fill-rule="evenodd" /></svg>